<?xml version="1.0" encoding="UTF-8" standalone="no"?>
<!-- Created with Inkscape (http://www.inkscape.org/) -->

<svg
   width="52.916668mm"
   height="13.229167mm"
   viewBox="0 0 52.916668 13.229167"
   version="1.1"
   id="svg1"
   inkscape:version="1.3.2 (091e20e, 2023-11-25, custom)"
   sodipodi:docname="ribouq.svg"
   xmlns:inkscape="http://www.inkscape.org/namespaces/inkscape"
   xmlns:sodipodi="http://sodipodi.sourceforge.net/DTD/sodipodi-0.dtd"
   xmlns="http://www.w3.org/2000/svg"
   xmlns:svg="http://www.w3.org/2000/svg">
  <sodipodi:namedview
     id="namedview1"
     pagecolor="#ffffff"
     bordercolor="#666666"
     borderopacity="1.0"
     inkscape:showpageshadow="2"
     inkscape:pageopacity="0.0"
     inkscape:pagecheckerboard="0"
     inkscape:deskcolor="#d1d1d1"
     inkscape:document-units="mm"
     inkscape:zoom="1.5037598"
     inkscape:cx="153.94746"
     inkscape:cy="6.982498"
     inkscape:window-width="1920"
     inkscape:window-height="1017"
     inkscape:window-x="3832"
     inkscape:window-y="-8"
     inkscape:window-maximized="1"
     inkscape:current-layer="layer1" />
  <defs
     id="defs1" />
  <g
     inkscape:label="Calque 1"
     inkscape:groupmode="layer"
     id="layer1"
     transform="translate(-26.744076,-21.817535)">
    <path
       style="font-size:10.5833px;line-height:1.25;font-family:BRONSON;-inkscape-font-specification:BRONSON;stroke-width:0.316835"
       d="m 36.194008,25.930241 q 0,0.636777 -0.151842,1.214319 -0.140998,0.562734 -0.455527,0.992187 -0.303683,0.414646 -0.780902,0.666396 -0.477217,0.251748 -1.138815,0.251748 l 2.527086,4.102028 h -3.09107 l -2.527087,-4.102028 h -0.694135 v 4.102028 H 27.517318 V 22.8204 h 6.117066 q 0.661597,0 1.138816,0.251749 0.488063,0.236941 0.802593,0.666394 0.31453,0.414646 0.466373,0.97738 0.151842,0.562732 0.151842,1.214318 z m -2.917537,0.977379 q 0.227763,0 0.357913,-0.118475 0.13015,-0.133279 0.195225,-0.296176 0.06508,-0.162895 0.07591,-0.325791 0.01084,-0.162897 0.01084,-0.23694 0,-0.07404 -0.01084,-0.222133 -0.01084,-0.162895 -0.07591,-0.325792 -0.06507,-0.162897 -0.195225,-0.281367 -0.13015,-0.13328 -0.357913,-0.13328 h -3.394755 v 1.93995 z m 3.980438,6.249299 V 22.8204 h 2.44032 v 10.336519 z m 11.832832,-5.375583 q 0.347066,0.429456 0.509754,1.006998 0.162688,0.577541 0.162688,1.243937 0,0.636776 -0.151843,1.214317 -0.151842,0.562734 -0.477217,0.992187 -0.325376,0.429455 -0.835132,0.681204 -0.498909,0.23694 -1.203891,0.23694 H 41.107185 V 22.8204 h 5.802536 q 0.661598,0 1.138816,0.251749 0.488064,0.236941 0.802594,0.666394 0.31453,0.414646 0.466373,0.97738 0.15184,0.562732 0.15184,1.214318 0,0.518307 -0.09761,0.992188 -0.08677,0.473879 -0.28199,0.858907 z M 43.471583,26.90762 h 3.080225 q 0.238609,0 0.36876,-0.118475 0.130149,-0.133279 0.195225,-0.296176 0.06507,-0.162895 0.07591,-0.325791 0.01084,-0.162897 0.01084,-0.23694 0,-0.07404 -0.01084,-0.222133 -0.01084,-0.162895 -0.07591,-0.325792 -0.06508,-0.162897 -0.195225,-0.281367 -0.130151,-0.13328 -0.36876,-0.13328 h -3.080225 z m 3.253759,4.102029 q 0.249454,0 0.379605,-0.118475 0.140997,-0.13328 0.20607,-0.296175 0.06508,-0.162897 0.07591,-0.325791 0.01084,-0.162898 0.01084,-0.236942 0,-0.07405 -0.01084,-0.236941 -0.01084,-0.162895 -0.07591,-0.325793 -0.06507,-0.162896 -0.20607,-0.281365 -0.130151,-0.13328 -0.379605,-0.13328 h -3.253759 v 1.954758 z m 9.37082,-8.307719 q 0.694137,0 1.301504,0.370219 0.618214,0.35541 1.073741,0.97738 0.455526,0.621967 0.715828,1.466065 0.271145,0.829293 0.271145,1.777054 v 1.392024 q 0,0.947762 -0.271145,1.791862 -0.260302,0.82929 -0.715828,1.451258 -0.455527,0.621969 -1.073741,0.992187 -0.607367,0.355411 -1.301504,0.355411 h -2.104096 q -0.694136,0 -1.312349,-0.355411 -0.607368,-0.370218 -1.062894,-0.992187 -0.455527,-0.621968 -0.726673,-1.451258 -0.260301,-0.8441 -0.260301,-1.791862 v -1.392024 q 0,-0.947761 0.260301,-1.777054 0.271146,-0.844098 0.726673,-1.466065 0.455526,-0.62197 1.062894,-0.97738 0.618213,-0.370219 1.312349,-0.370219 z m 0.943592,4.590718 q 0,-0.873717 -0.162689,-1.347598 -0.162687,-0.473881 -0.401297,-0.681204 -0.227762,-0.222131 -0.49891,-0.251748 -0.260301,-0.04443 -0.455525,-0.04443 h -0.965282 q -0.195225,0 -0.455527,0.04443 -0.2603,0.02962 -0.498909,0.251748 -0.227763,0.207323 -0.390451,0.681204 -0.162689,0.473881 -0.162689,1.347598 v 1.392024 q 0,0.873717 0.162689,1.347599 0.162688,0.47388 0.390451,0.696012 0.238609,0.207322 0.498909,0.251748 0.260302,0.02962 0.455527,0.02962 h 0.965282 q 0.195224,0 0.455525,-0.02962 0.271148,-0.04443 0.49891,-0.251748 0.23861,-0.222132 0.401297,-0.696012 0.162689,-0.473882 0.162689,-1.347599 z M 69.284722,22.8204 v 5.864272 q 0,0.947762 -0.271148,1.791862 -0.260299,0.82929 -0.715825,1.451258 -0.455527,0.621969 -1.073741,0.992187 -0.607368,0.355411 -1.301503,0.355411 h -2.104096 q -0.694136,0 -1.312349,-0.355411 -0.60737,-0.370218 -1.062896,-0.992187 -0.455526,-0.621968 -0.726672,-1.451258 -0.260301,-0.8441 -0.260301,-1.791862 V 22.8204 h 2.418627 v 5.864272 q 0,0.873717 0.162687,1.347599 0.162689,0.47388 0.390452,0.696012 0.238609,0.207322 0.49891,0.251748 0.2603,0.02962 0.455526,0.02962 h 0.965282 q 0.195226,0 0.455525,-0.02962 0.271147,-0.04443 0.49891,-0.251748 0.238609,-0.222132 0.401298,-0.696012 0.162687,-0.473882 0.162687,-1.347599 V 22.8204 Z m 6.464124,-0.118475 q 0.694137,0 1.301503,0.370219 0.618213,0.355412 1.073745,0.97738 0.455525,0.621967 0.715826,1.466067 0.271148,0.829291 0.271148,1.777052 v 1.392026 q 0,0.710821 -0.151842,1.377214 -0.151849,0.651586 -0.433837,1.214319 -0.281995,0.562733 -0.68329,1.006995 -0.390448,0.429456 -0.878514,0.681204 l 0.542289,1.643774 h -1.811258 l -0.43383,-1.332789 h -1.616034 q -0.694137,0 -1.31235,-0.355411 -0.607368,-0.370214 -1.062895,-0.992183 -0.455526,-0.621968 -0.726674,-1.451258 -0.2603,-0.8441 -0.2603,-1.791862 v -1.392024 q 0,-0.947761 0.2603,-1.777054 0.271148,-0.844098 0.726674,-1.466065 0.455527,-0.62197 1.062895,-0.97738 0.618213,-0.370219 1.31235,-0.370219 z m 0.94359,4.590718 q 0,-0.873716 -0.162688,-1.347597 -0.162689,-0.473882 -0.401295,-0.681203 -0.238606,-0.222131 -0.498907,-0.25175 -0.260301,-0.04443 -0.455532,-0.04443 h -0.965278 q -0.195223,0 -0.455524,0.04443 -0.260302,0.02963 -0.498913,0.25175 -0.227763,0.207321 -0.39045,0.681203 -0.162687,0.473881 -0.162687,1.347597 v 1.392026 q 0,0.873716 0.162687,1.347597 0.162687,0.47388 0.39045,0.696012 0.238611,0.207323 0.498913,0.251749 0.260301,0.02962 0.455524,0.02962 h 0.292835 l -0.867666,-2.650765 h 1.811258 l 0.748367,2.280551 q 0.216919,-0.236941 0.357912,-0.681204 0.140994,-0.459071 0.140994,-1.273554 z"
       id="text2"
       aria-label="RIBOUQ" />
  </g>
</svg>
